<svg xmlns="http://www.w3.org/2000/svg" xmlns:xlink="http://www.w3.org/1999/xlink" width="500" zoomAndPan="magnify" viewBox="0 0 375 374.999991" height="500" preserveAspectRatio="xMidYMid meet" version="1.0"><defs><g/><clipPath id="d57de0cfb0"><path d="M 201.035156 122.757812 L 225.785156 122.757812 L 225.785156 147.507812 L 201.035156 147.507812 Z M 201.035156 122.757812 " clip-rule="nonzero"/></clipPath><clipPath id="8b0c9dedc1"><path d="M 74.445312 69.167969 L 311.109375 69.167969 L 311.109375 305.832031 L 74.445312 305.832031 Z M 74.445312 69.167969 " clip-rule="nonzero"/></clipPath><clipPath id="755bc97e47"><path d="M 192.777344 69.167969 C 127.425781 69.167969 74.445312 122.148438 74.445312 187.5 C 74.445312 252.851562 127.425781 305.832031 192.777344 305.832031 C 258.128906 305.832031 311.109375 252.851562 311.109375 187.5 C 311.109375 122.148438 258.128906 69.167969 192.777344 69.167969 " clip-rule="nonzero"/></clipPath><linearGradient x1="-0.00000341053" gradientTransform="matrix(0.616308, 0, 0, 0.616308, 74.44649, 69.168888)" y1="0" x2="383.999991" gradientUnits="userSpaceOnUse" y2="0" id="b9e736d6a4"><stop stop-opacity="1" stop-color="rgb(31.799316%, 43.899536%, 100%)" offset="0"/><stop stop-opacity="1" stop-color="rgb(32.064819%, 43.884277%, 99.908447%)" offset="0.00390625"/><stop stop-opacity="1" stop-color="rgb(32.331848%, 43.869019%, 99.81842%)" offset="0.0078125"/><stop stop-opacity="1" stop-color="rgb(32.597351%, 43.85376%, 99.728394%)" offset="0.0117188"/><stop stop-opacity="1" stop-color="rgb(32.86438%, 43.838501%, 99.638367%)" offset="0.015625"/><stop stop-opacity="1" stop-color="rgb(33.129883%, 43.823242%, 99.54834%)" offset="0.0195312"/><stop stop-opacity="1" stop-color="rgb(33.396912%, 43.807983%, 99.458313%)" offset="0.0234375"/><stop stop-opacity="1" stop-color="rgb(33.66394%, 43.792725%, 99.36676%)" offset="0.0273438"/><stop stop-opacity="1" stop-color="rgb(33.930969%, 43.777466%, 99.276733%)" offset="0.03125"/><stop stop-opacity="1" stop-color="rgb(34.196472%, 43.762207%, 99.186707%)" offset="0.0351562"/><stop stop-opacity="1" stop-color="rgb(34.463501%, 43.746948%, 99.09668%)" offset="0.0390625"/><stop stop-opacity="1" stop-color="rgb(34.729004%, 43.731689%, 99.006653%)" offset="0.0429688"/><stop stop-opacity="1" stop-color="rgb(34.996033%, 43.716431%, 98.916626%)" offset="0.046875"/><stop stop-opacity="1" stop-color="rgb(35.261536%, 43.701172%, 98.826599%)" offset="0.0507813"/><stop stop-opacity="1" stop-color="rgb(35.528564%, 43.685913%, 98.736572%)" offset="0.0546875"/><stop stop-opacity="1" stop-color="rgb(35.794067%, 43.670654%, 98.64502%)" offset="0.0585938"/><stop stop-opacity="1" stop-color="rgb(36.061096%, 43.655396%, 98.554993%)" offset="0.0625"/><stop stop-opacity="1" stop-color="rgb(36.328125%, 43.640137%, 98.464966%)" offset="0.0664063"/><stop stop-opacity="1" stop-color="rgb(36.595154%, 43.624878%, 98.374939%)" offset="0.0703125"/><stop stop-opacity="1" stop-color="rgb(36.860657%, 43.609619%, 98.284912%)" offset="0.0742188"/><stop stop-opacity="1" stop-color="rgb(37.127686%, 43.59436%, 98.194885%)" offset="0.078125"/><stop stop-opacity="1" stop-color="rgb(37.393188%, 43.579102%, 98.104858%)" offset="0.0820313"/><stop stop-opacity="1" stop-color="rgb(37.660217%, 43.563843%, 98.014832%)" offset="0.0859375"/><stop stop-opacity="1" stop-color="rgb(37.92572%, 43.548584%, 97.923279%)" offset="0.0898438"/><stop stop-opacity="1" stop-color="rgb(38.192749%, 43.533325%, 97.833252%)" offset="0.09375"/><stop stop-opacity="1" stop-color="rgb(38.458252%, 43.518066%, 97.743225%)" offset="0.0976563"/><stop stop-opacity="1" stop-color="rgb(38.725281%, 43.502808%, 97.653198%)" offset="0.101563"/><stop stop-opacity="1" stop-color="rgb(38.99231%, 43.487549%, 97.563171%)" offset="0.105469"/><stop stop-opacity="1" stop-color="rgb(39.259338%, 43.47229%, 97.473145%)" offset="0.109375"/><stop stop-opacity="1" stop-color="rgb(39.524841%, 43.457031%, 97.381592%)" offset="0.113281"/><stop stop-opacity="1" stop-color="rgb(39.79187%, 43.441772%, 97.291565%)" offset="0.117188"/><stop stop-opacity="1" stop-color="rgb(40.057373%, 43.426514%, 97.201538%)" offset="0.121094"/><stop stop-opacity="1" stop-color="rgb(40.324402%, 43.411255%, 97.111511%)" offset="0.125"/><stop stop-opacity="1" stop-color="rgb(40.589905%, 43.395996%, 97.021484%)" offset="0.128906"/><stop stop-opacity="1" stop-color="rgb(40.856934%, 43.380737%, 96.931458%)" offset="0.132813"/><stop stop-opacity="1" stop-color="rgb(41.122437%, 43.365479%, 96.841431%)" offset="0.136719"/><stop stop-opacity="1" stop-color="rgb(41.389465%, 43.35022%, 96.751404%)" offset="0.140625"/><stop stop-opacity="1" stop-color="rgb(41.654968%, 43.334961%, 96.659851%)" offset="0.144531"/><stop stop-opacity="1" stop-color="rgb(41.921997%, 43.319702%, 96.569824%)" offset="0.148438"/><stop stop-opacity="1" stop-color="rgb(42.189026%, 43.304443%, 96.479797%)" offset="0.152344"/><stop stop-opacity="1" stop-color="rgb(42.456055%, 43.289185%, 96.389771%)" offset="0.15625"/><stop stop-opacity="1" stop-color="rgb(42.721558%, 43.273926%, 96.299744%)" offset="0.160156"/><stop stop-opacity="1" stop-color="rgb(42.988586%, 43.258667%, 96.209717%)" offset="0.164063"/><stop stop-opacity="1" stop-color="rgb(43.254089%, 43.243408%, 96.11969%)" offset="0.167969"/><stop stop-opacity="1" stop-color="rgb(43.521118%, 43.229675%, 96.029663%)" offset="0.171875"/><stop stop-opacity="1" stop-color="rgb(43.786621%, 43.214417%, 95.93811%)" offset="0.175781"/><stop stop-opacity="1" stop-color="rgb(44.05365%, 43.199158%, 95.848083%)" offset="0.179688"/><stop stop-opacity="1" stop-color="rgb(44.319153%, 43.183899%, 95.758057%)" offset="0.183594"/><stop stop-opacity="1" stop-color="rgb(44.586182%, 43.16864%, 95.66803%)" offset="0.1875"/><stop stop-opacity="1" stop-color="rgb(44.85321%, 43.153381%, 95.578003%)" offset="0.191406"/><stop stop-opacity="1" stop-color="rgb(45.120239%, 43.138123%, 95.487976%)" offset="0.195313"/><stop stop-opacity="1" stop-color="rgb(45.385742%, 43.122864%, 95.396423%)" offset="0.199219"/><stop stop-opacity="1" stop-color="rgb(45.652771%, 43.107605%, 95.306396%)" offset="0.203125"/><stop stop-opacity="1" stop-color="rgb(45.918274%, 43.092346%, 95.21637%)" offset="0.207031"/><stop stop-opacity="1" stop-color="rgb(46.185303%, 43.077087%, 95.126343%)" offset="0.210938"/><stop stop-opacity="1" stop-color="rgb(46.450806%, 43.061829%, 95.036316%)" offset="0.214844"/><stop stop-opacity="1" stop-color="rgb(46.717834%, 43.04657%, 94.946289%)" offset="0.21875"/><stop stop-opacity="1" stop-color="rgb(46.983337%, 43.031311%, 94.856262%)" offset="0.222656"/><stop stop-opacity="1" stop-color="rgb(47.250366%, 43.016052%, 94.766235%)" offset="0.226562"/><stop stop-opacity="1" stop-color="rgb(47.515869%, 43.000793%, 94.674683%)" offset="0.230469"/><stop stop-opacity="1" stop-color="rgb(47.782898%, 42.985535%, 94.584656%)" offset="0.234375"/><stop stop-opacity="1" stop-color="rgb(48.049927%, 42.970276%, 94.494629%)" offset="0.238281"/><stop stop-opacity="1" stop-color="rgb(48.316956%, 42.955017%, 94.404602%)" offset="0.242188"/><stop stop-opacity="1" stop-color="rgb(48.582458%, 42.939758%, 94.314575%)" offset="0.246094"/><stop stop-opacity="1" stop-color="rgb(48.849487%, 42.9245%, 94.224548%)" offset="0.25"/><stop stop-opacity="1" stop-color="rgb(49.11499%, 42.909241%, 94.134521%)" offset="0.253906"/><stop stop-opacity="1" stop-color="rgb(49.382019%, 42.893982%, 94.044495%)" offset="0.257812"/><stop stop-opacity="1" stop-color="rgb(49.647522%, 42.878723%, 93.952942%)" offset="0.261719"/><stop stop-opacity="1" stop-color="rgb(49.914551%, 42.863464%, 93.862915%)" offset="0.265625"/><stop stop-opacity="1" stop-color="rgb(50.180054%, 42.848206%, 93.772888%)" offset="0.269531"/><stop stop-opacity="1" stop-color="rgb(50.447083%, 42.832947%, 93.682861%)" offset="0.273438"/><stop stop-opacity="1" stop-color="rgb(50.714111%, 42.817688%, 93.592834%)" offset="0.277344"/><stop stop-opacity="1" stop-color="rgb(50.98114%, 42.802429%, 93.502808%)" offset="0.28125"/><stop stop-opacity="1" stop-color="rgb(51.246643%, 42.78717%, 93.411255%)" offset="0.285156"/><stop stop-opacity="1" stop-color="rgb(51.513672%, 42.771912%, 93.321228%)" offset="0.289062"/><stop stop-opacity="1" stop-color="rgb(51.779175%, 42.756653%, 93.231201%)" offset="0.292969"/><stop stop-opacity="1" stop-color="rgb(52.046204%, 42.741394%, 93.141174%)" offset="0.296875"/><stop stop-opacity="1" stop-color="rgb(52.311707%, 42.726135%, 93.051147%)" offset="0.300781"/><stop stop-opacity="1" stop-color="rgb(52.578735%, 42.710876%, 92.961121%)" offset="0.304688"/><stop stop-opacity="1" stop-color="rgb(52.844238%, 42.695618%, 92.871094%)" offset="0.308594"/><stop stop-opacity="1" stop-color="rgb(53.111267%, 42.680359%, 92.781067%)" offset="0.3125"/><stop stop-opacity="1" stop-color="rgb(53.37677%, 42.6651%, 92.689514%)" offset="0.316406"/><stop stop-opacity="1" stop-color="rgb(53.643799%, 42.649841%, 92.599487%)" offset="0.320313"/><stop stop-opacity="1" stop-color="rgb(53.910828%, 42.634583%, 92.50946%)" offset="0.324219"/><stop stop-opacity="1" stop-color="rgb(54.177856%, 42.619324%, 92.419434%)" offset="0.328125"/><stop stop-opacity="1" stop-color="rgb(54.443359%, 42.604065%, 92.329407%)" offset="0.332031"/><stop stop-opacity="1" stop-color="rgb(54.710388%, 42.588806%, 92.23938%)" offset="0.335938"/><stop stop-opacity="1" stop-color="rgb(54.975891%, 42.573547%, 92.149353%)" offset="0.339844"/><stop stop-opacity="1" stop-color="rgb(55.24292%, 42.558289%, 92.059326%)" offset="0.34375"/><stop stop-opacity="1" stop-color="rgb(55.508423%, 42.54303%, 91.967773%)" offset="0.347656"/><stop stop-opacity="1" stop-color="rgb(55.775452%, 42.527771%, 91.877747%)" offset="0.351563"/><stop stop-opacity="1" stop-color="rgb(56.040955%, 42.512512%, 91.78772%)" offset="0.355469"/><stop stop-opacity="1" stop-color="rgb(56.307983%, 42.497253%, 91.697693%)" offset="0.359375"/><stop stop-opacity="1" stop-color="rgb(56.575012%, 42.481995%, 91.607666%)" offset="0.363281"/><stop stop-opacity="1" stop-color="rgb(56.842041%, 42.466736%, 91.517639%)" offset="0.367188"/><stop stop-opacity="1" stop-color="rgb(57.107544%, 42.451477%, 91.426086%)" offset="0.371094"/><stop stop-opacity="1" stop-color="rgb(57.374573%, 42.436218%, 91.33606%)" offset="0.375"/><stop stop-opacity="1" stop-color="rgb(57.640076%, 42.420959%, 91.246033%)" offset="0.378906"/><stop stop-opacity="1" stop-color="rgb(57.907104%, 42.405701%, 91.156006%)" offset="0.382813"/><stop stop-opacity="1" stop-color="rgb(58.172607%, 42.390442%, 91.065979%)" offset="0.386719"/><stop stop-opacity="1" stop-color="rgb(58.439636%, 42.375183%, 90.975952%)" offset="0.390625"/><stop stop-opacity="1" stop-color="rgb(58.705139%, 42.359924%, 90.885925%)" offset="0.394531"/><stop stop-opacity="1" stop-color="rgb(58.972168%, 42.344666%, 90.795898%)" offset="0.398438"/><stop stop-opacity="1" stop-color="rgb(59.239197%, 42.329407%, 90.704346%)" offset="0.402344"/><stop stop-opacity="1" stop-color="rgb(59.506226%, 42.314148%, 90.614319%)" offset="0.40625"/><stop stop-opacity="1" stop-color="rgb(59.771729%, 42.298889%, 90.524292%)" offset="0.410156"/><stop stop-opacity="1" stop-color="rgb(60.038757%, 42.285156%, 90.434265%)" offset="0.414063"/><stop stop-opacity="1" stop-color="rgb(60.30426%, 42.269897%, 90.344238%)" offset="0.417969"/><stop stop-opacity="1" stop-color="rgb(60.571289%, 42.254639%, 90.254211%)" offset="0.421875"/><stop stop-opacity="1" stop-color="rgb(60.836792%, 42.23938%, 90.164185%)" offset="0.425781"/><stop stop-opacity="1" stop-color="rgb(61.103821%, 42.224121%, 90.074158%)" offset="0.429688"/><stop stop-opacity="1" stop-color="rgb(61.369324%, 42.208862%, 89.982605%)" offset="0.433594"/><stop stop-opacity="1" stop-color="rgb(61.636353%, 42.193604%, 89.892578%)" offset="0.4375"/><stop stop-opacity="1" stop-color="rgb(61.901855%, 42.178345%, 89.802551%)" offset="0.441406"/><stop stop-opacity="1" stop-color="rgb(62.168884%, 42.163086%, 89.712524%)" offset="0.445313"/><stop stop-opacity="1" stop-color="rgb(62.435913%, 42.147827%, 89.622498%)" offset="0.449219"/><stop stop-opacity="1" stop-color="rgb(62.702942%, 42.132568%, 89.532471%)" offset="0.453125"/><stop stop-opacity="1" stop-color="rgb(62.968445%, 42.11731%, 89.440918%)" offset="0.457031"/><stop stop-opacity="1" stop-color="rgb(63.235474%, 42.102051%, 89.350891%)" offset="0.460938"/><stop stop-opacity="1" stop-color="rgb(63.500977%, 42.086792%, 89.260864%)" offset="0.464844"/><stop stop-opacity="1" stop-color="rgb(63.768005%, 42.071533%, 89.170837%)" offset="0.46875"/><stop stop-opacity="1" stop-color="rgb(64.033508%, 42.056274%, 89.080811%)" offset="0.472656"/><stop stop-opacity="1" stop-color="rgb(64.300537%, 42.041016%, 88.990784%)" offset="0.476563"/><stop stop-opacity="1" stop-color="rgb(64.56604%, 42.025757%, 88.900757%)" offset="0.480469"/><stop stop-opacity="1" stop-color="rgb(64.833069%, 42.010498%, 88.81073%)" offset="0.484375"/><stop stop-opacity="1" stop-color="rgb(65.100098%, 41.995239%, 88.719177%)" offset="0.488281"/><stop stop-opacity="1" stop-color="rgb(65.367126%, 41.97998%, 88.62915%)" offset="0.492188"/><stop stop-opacity="1" stop-color="rgb(65.632629%, 41.964722%, 88.539124%)" offset="0.496094"/><stop stop-opacity="1" stop-color="rgb(65.899658%, 41.949463%, 88.449097%)" offset="0.5"/><stop stop-opacity="1" stop-color="rgb(66.165161%, 41.934204%, 88.35907%)" offset="0.503906"/><stop stop-opacity="1" stop-color="rgb(66.43219%, 41.918945%, 88.269043%)" offset="0.507813"/><stop stop-opacity="1" stop-color="rgb(66.697693%, 41.903687%, 88.179016%)" offset="0.511719"/><stop stop-opacity="1" stop-color="rgb(66.964722%, 41.888428%, 88.088989%)" offset="0.515625"/><stop stop-opacity="1" stop-color="rgb(67.230225%, 41.873169%, 87.997437%)" offset="0.519531"/><stop stop-opacity="1" stop-color="rgb(67.497253%, 41.85791%, 87.90741%)" offset="0.523438"/><stop stop-opacity="1" stop-color="rgb(67.762756%, 41.842651%, 87.817383%)" offset="0.527344"/><stop stop-opacity="1" stop-color="rgb(68.029785%, 41.827393%, 87.727356%)" offset="0.53125"/><stop stop-opacity="1" stop-color="rgb(68.296814%, 41.812134%, 87.637329%)" offset="0.535156"/><stop stop-opacity="1" stop-color="rgb(68.563843%, 41.796875%, 87.547302%)" offset="0.539062"/><stop stop-opacity="1" stop-color="rgb(68.829346%, 41.781616%, 87.45575%)" offset="0.542969"/><stop stop-opacity="1" stop-color="rgb(69.096375%, 41.766357%, 87.365723%)" offset="0.546875"/><stop stop-opacity="1" stop-color="rgb(69.361877%, 41.751099%, 87.275696%)" offset="0.550781"/><stop stop-opacity="1" stop-color="rgb(69.628906%, 41.73584%, 87.185669%)" offset="0.554688"/><stop stop-opacity="1" stop-color="rgb(69.894409%, 41.720581%, 87.095642%)" offset="0.558594"/><stop stop-opacity="1" stop-color="rgb(70.161438%, 41.705322%, 87.005615%)" offset="0.5625"/><stop stop-opacity="1" stop-color="rgb(70.426941%, 41.690063%, 86.915588%)" offset="0.566406"/><stop stop-opacity="1" stop-color="rgb(70.69397%, 41.674805%, 86.825562%)" offset="0.570312"/><stop stop-opacity="1" stop-color="rgb(70.960999%, 41.659546%, 86.734009%)" offset="0.574219"/><stop stop-opacity="1" stop-color="rgb(71.228027%, 41.644287%, 86.643982%)" offset="0.578125"/><stop stop-opacity="1" stop-color="rgb(71.49353%, 41.629028%, 86.553955%)" offset="0.582031"/><stop stop-opacity="1" stop-color="rgb(71.760559%, 41.61377%, 86.463928%)" offset="0.585937"/><stop stop-opacity="1" stop-color="rgb(72.026062%, 41.598511%, 86.373901%)" offset="0.589844"/><stop stop-opacity="1" stop-color="rgb(72.293091%, 41.583252%, 86.283875%)" offset="0.59375"/><stop stop-opacity="1" stop-color="rgb(72.558594%, 41.567993%, 86.193848%)" offset="0.597656"/><stop stop-opacity="1" stop-color="rgb(72.825623%, 41.552734%, 86.103821%)" offset="0.601562"/><stop stop-opacity="1" stop-color="rgb(73.091125%, 41.537476%, 86.012268%)" offset="0.605469"/><stop stop-opacity="1" stop-color="rgb(73.358154%, 41.522217%, 85.922241%)" offset="0.609375"/><stop stop-opacity="1" stop-color="rgb(73.623657%, 41.506958%, 85.832214%)" offset="0.613281"/><stop stop-opacity="1" stop-color="rgb(73.890686%, 41.491699%, 85.742188%)" offset="0.617188"/><stop stop-opacity="1" stop-color="rgb(74.157715%, 41.47644%, 85.652161%)" offset="0.621094"/><stop stop-opacity="1" stop-color="rgb(74.424744%, 41.461182%, 85.562134%)" offset="0.625"/><stop stop-opacity="1" stop-color="rgb(74.690247%, 41.445923%, 85.470581%)" offset="0.628906"/><stop stop-opacity="1" stop-color="rgb(74.957275%, 41.430664%, 85.380554%)" offset="0.632812"/><stop stop-opacity="1" stop-color="rgb(75.222778%, 41.415405%, 85.290527%)" offset="0.636719"/><stop stop-opacity="1" stop-color="rgb(75.489807%, 41.400146%, 85.2005%)" offset="0.640625"/><stop stop-opacity="1" stop-color="rgb(75.75531%, 41.384888%, 85.110474%)" offset="0.644531"/><stop stop-opacity="1" stop-color="rgb(76.022339%, 41.369629%, 85.020447%)" offset="0.648438"/><stop stop-opacity="1" stop-color="rgb(76.287842%, 41.35437%, 84.93042%)" offset="0.652344"/><stop stop-opacity="1" stop-color="rgb(76.554871%, 41.339111%, 84.840393%)" offset="0.65625"/><stop stop-opacity="1" stop-color="rgb(76.821899%, 41.323853%, 84.74884%)" offset="0.660156"/><stop stop-opacity="1" stop-color="rgb(77.088928%, 41.31012%, 84.658813%)" offset="0.664062"/><stop stop-opacity="1" stop-color="rgb(77.354431%, 41.294861%, 84.568787%)" offset="0.667969"/><stop stop-opacity="1" stop-color="rgb(77.62146%, 41.279602%, 84.47876%)" offset="0.671875"/><stop stop-opacity="1" stop-color="rgb(77.886963%, 41.264343%, 84.388733%)" offset="0.675781"/><stop stop-opacity="1" stop-color="rgb(78.153992%, 41.249084%, 84.298706%)" offset="0.679687"/><stop stop-opacity="1" stop-color="rgb(78.419495%, 41.233826%, 84.208679%)" offset="0.683594"/><stop stop-opacity="1" stop-color="rgb(78.686523%, 41.218567%, 84.118652%)" offset="0.6875"/><stop stop-opacity="1" stop-color="rgb(78.952026%, 41.203308%, 84.0271%)" offset="0.691406"/><stop stop-opacity="1" stop-color="rgb(79.219055%, 41.188049%, 83.937073%)" offset="0.695312"/><stop stop-opacity="1" stop-color="rgb(79.486084%, 41.172791%, 83.847046%)" offset="0.699219"/><stop stop-opacity="1" stop-color="rgb(79.753113%, 41.157532%, 83.757019%)" offset="0.703125"/><stop stop-opacity="1" stop-color="rgb(80.018616%, 41.142273%, 83.666992%)" offset="0.707031"/><stop stop-opacity="1" stop-color="rgb(80.285645%, 41.127014%, 83.576965%)" offset="0.710937"/><stop stop-opacity="1" stop-color="rgb(80.551147%, 41.111755%, 83.485413%)" offset="0.714844"/><stop stop-opacity="1" stop-color="rgb(80.818176%, 41.096497%, 83.395386%)" offset="0.71875"/><stop stop-opacity="1" stop-color="rgb(81.083679%, 41.081238%, 83.305359%)" offset="0.722656"/><stop stop-opacity="1" stop-color="rgb(81.350708%, 41.065979%, 83.215332%)" offset="0.726562"/><stop stop-opacity="1" stop-color="rgb(81.616211%, 41.05072%, 83.125305%)" offset="0.730469"/><stop stop-opacity="1" stop-color="rgb(81.88324%, 41.035461%, 83.035278%)" offset="0.734375"/><stop stop-opacity="1" stop-color="rgb(82.148743%, 41.020203%, 82.945251%)" offset="0.738281"/><stop stop-opacity="1" stop-color="rgb(82.415771%, 41.004944%, 82.855225%)" offset="0.742188"/><stop stop-opacity="1" stop-color="rgb(82.6828%, 40.989685%, 82.763672%)" offset="0.746094"/><stop stop-opacity="1" stop-color="rgb(82.949829%, 40.974426%, 82.673645%)" offset="0.75"/><stop stop-opacity="1" stop-color="rgb(83.215332%, 40.959167%, 82.583618%)" offset="0.753906"/><stop stop-opacity="1" stop-color="rgb(83.482361%, 40.943909%, 82.493591%)" offset="0.757812"/><stop stop-opacity="1" stop-color="rgb(83.747864%, 40.92865%, 82.403564%)" offset="0.761719"/><stop stop-opacity="1" stop-color="rgb(84.014893%, 40.913391%, 82.313538%)" offset="0.765625"/><stop stop-opacity="1" stop-color="rgb(84.280396%, 40.898132%, 82.223511%)" offset="0.769531"/><stop stop-opacity="1" stop-color="rgb(84.547424%, 40.882874%, 82.133484%)" offset="0.773438"/><stop stop-opacity="1" stop-color="rgb(84.812927%, 40.867615%, 82.041931%)" offset="0.777344"/><stop stop-opacity="1" stop-color="rgb(85.079956%, 40.852356%, 81.951904%)" offset="0.78125"/><stop stop-opacity="1" stop-color="rgb(85.346985%, 40.837097%, 81.861877%)" offset="0.785156"/><stop stop-opacity="1" stop-color="rgb(85.614014%, 40.821838%, 81.771851%)" offset="0.789062"/><stop stop-opacity="1" stop-color="rgb(85.879517%, 40.80658%, 81.681824%)" offset="0.792969"/><stop stop-opacity="1" stop-color="rgb(86.146545%, 40.791321%, 81.591797%)" offset="0.796875"/><stop stop-opacity="1" stop-color="rgb(86.412048%, 40.776062%, 81.500244%)" offset="0.800781"/><stop stop-opacity="1" stop-color="rgb(86.679077%, 40.760803%, 81.410217%)" offset="0.804687"/><stop stop-opacity="1" stop-color="rgb(86.94458%, 40.745544%, 81.32019%)" offset="0.808594"/><stop stop-opacity="1" stop-color="rgb(87.211609%, 40.730286%, 81.230164%)" offset="0.8125"/><stop stop-opacity="1" stop-color="rgb(87.477112%, 40.715027%, 81.140137%)" offset="0.816406"/><stop stop-opacity="1" stop-color="rgb(87.744141%, 40.699768%, 81.05011%)" offset="0.820312"/><stop stop-opacity="1" stop-color="rgb(88.009644%, 40.684509%, 80.960083%)" offset="0.824219"/><stop stop-opacity="1" stop-color="rgb(88.276672%, 40.66925%, 80.870056%)" offset="0.828125"/><stop stop-opacity="1" stop-color="rgb(88.543701%, 40.653992%, 80.778503%)" offset="0.832031"/><stop stop-opacity="1" stop-color="rgb(88.81073%, 40.638733%, 80.688477%)" offset="0.835938"/><stop stop-opacity="1" stop-color="rgb(89.076233%, 40.623474%, 80.59845%)" offset="0.839844"/><stop stop-opacity="1" stop-color="rgb(89.343262%, 40.608215%, 80.508423%)" offset="0.84375"/><stop stop-opacity="1" stop-color="rgb(89.608765%, 40.592957%, 80.418396%)" offset="0.847656"/><stop stop-opacity="1" stop-color="rgb(89.875793%, 40.577698%, 80.328369%)" offset="0.851562"/><stop stop-opacity="1" stop-color="rgb(90.141296%, 40.562439%, 80.238342%)" offset="0.855469"/><stop stop-opacity="1" stop-color="rgb(90.408325%, 40.54718%, 80.148315%)" offset="0.859375"/><stop stop-opacity="1" stop-color="rgb(90.673828%, 40.531921%, 80.056763%)" offset="0.863281"/><stop stop-opacity="1" stop-color="rgb(90.940857%, 40.516663%, 79.966736%)" offset="0.867188"/><stop stop-opacity="1" stop-color="rgb(91.207886%, 40.501404%, 79.876709%)" offset="0.871094"/><stop stop-opacity="1" stop-color="rgb(91.474915%, 40.486145%, 79.786682%)" offset="0.875"/><stop stop-opacity="1" stop-color="rgb(91.740417%, 40.470886%, 79.696655%)" offset="0.878906"/><stop stop-opacity="1" stop-color="rgb(92.007446%, 40.455627%, 79.606628%)" offset="0.882812"/><stop stop-opacity="1" stop-color="rgb(92.272949%, 40.440369%, 79.515076%)" offset="0.886719"/><stop stop-opacity="1" stop-color="rgb(92.539978%, 40.42511%, 79.425049%)" offset="0.890625"/><stop stop-opacity="1" stop-color="rgb(92.805481%, 40.409851%, 79.335022%)" offset="0.894531"/><stop stop-opacity="1" stop-color="rgb(93.07251%, 40.394592%, 79.244995%)" offset="0.898438"/><stop stop-opacity="1" stop-color="rgb(93.338013%, 40.379333%, 79.154968%)" offset="0.902344"/><stop stop-opacity="1" stop-color="rgb(93.605042%, 40.365601%, 79.064941%)" offset="0.90625"/><stop stop-opacity="1" stop-color="rgb(93.870544%, 40.350342%, 78.974915%)" offset="0.910156"/><stop stop-opacity="1" stop-color="rgb(94.137573%, 40.335083%, 78.884888%)" offset="0.914062"/><stop stop-opacity="1" stop-color="rgb(94.404602%, 40.319824%, 78.793335%)" offset="0.917969"/><stop stop-opacity="1" stop-color="rgb(94.671631%, 40.304565%, 78.703308%)" offset="0.921875"/><stop stop-opacity="1" stop-color="rgb(94.937134%, 40.289307%, 78.613281%)" offset="0.925781"/><stop stop-opacity="1" stop-color="rgb(95.204163%, 40.274048%, 78.523254%)" offset="0.929687"/><stop stop-opacity="1" stop-color="rgb(95.469666%, 40.258789%, 78.433228%)" offset="0.933594"/><stop stop-opacity="1" stop-color="rgb(95.736694%, 40.24353%, 78.343201%)" offset="0.9375"/><stop stop-opacity="1" stop-color="rgb(96.002197%, 40.228271%, 78.253174%)" offset="0.941406"/><stop stop-opacity="1" stop-color="rgb(96.269226%, 40.213013%, 78.163147%)" offset="0.945313"/><stop stop-opacity="1" stop-color="rgb(96.534729%, 40.197754%, 78.071594%)" offset="0.949219"/><stop stop-opacity="1" stop-color="rgb(96.801758%, 40.182495%, 77.981567%)" offset="0.953125"/><stop stop-opacity="1" stop-color="rgb(97.068787%, 40.167236%, 77.891541%)" offset="0.957031"/><stop stop-opacity="1" stop-color="rgb(97.335815%, 40.151978%, 77.801514%)" offset="0.960938"/><stop stop-opacity="1" stop-color="rgb(97.601318%, 40.136719%, 77.711487%)" offset="0.964844"/><stop stop-opacity="1" stop-color="rgb(97.868347%, 40.12146%, 77.62146%)" offset="0.96875"/><stop stop-opacity="1" stop-color="rgb(98.13385%, 40.106201%, 77.531433%)" offset="0.972656"/><stop stop-opacity="1" stop-color="rgb(98.400879%, 40.090942%, 77.441406%)" offset="0.976562"/><stop stop-opacity="1" stop-color="rgb(98.666382%, 40.075684%, 77.349854%)" offset="0.980469"/><stop stop-opacity="1" stop-color="rgb(98.933411%, 40.060425%, 77.259827%)" offset="0.984375"/><stop stop-opacity="1" stop-color="rgb(99.198914%, 40.045166%, 77.1698%)" offset="0.988281"/><stop stop-opacity="1" stop-color="rgb(99.465942%, 40.029907%, 77.079773%)" offset="0.992188"/><stop stop-opacity="1" stop-color="rgb(99.731445%, 40.014648%, 76.989746%)" offset="0.996094"/><stop stop-opacity="1" stop-color="rgb(99.998474%, 39.99939%, 76.899719%)" offset="1"/></linearGradient><clipPath id="47073ea008"><path d="M 192.777344 147.710938 L 208.527344 147.710938 L 208.527344 163.460938 L 192.777344 163.460938 Z M 192.777344 147.710938 " clip-rule="nonzero"/></clipPath><clipPath id="95521fefad"><path d="M 197.707031 94.585938 L 286.957031 94.585938 L 286.957031 269.335938 L 197.707031 269.335938 Z M 197.707031 94.585938 " clip-rule="nonzero"/></clipPath></defs><g clip-path="url(#d57de0cfb0)"><path fill="#e9eaec" d="M 225.78125 135.128906 C 216.5 136.839844 215.117188 138.222656 213.40625 147.503906 C 211.699219 138.222656 210.316406 136.839844 201.035156 135.128906 C 210.316406 133.421875 211.699219 132.035156 213.40625 122.757812 C 215.117188 132.035156 216.5 133.421875 225.78125 135.128906 Z M 225.78125 135.128906 " fill-opacity="1" fill-rule="nonzero"/></g><g clip-path="url(#8b0c9dedc1)"><g clip-path="url(#755bc97e47)"><path fill="url(#b9e736d6a4)" d="M 74.445312 69.167969 L 74.445312 305.832031 L 311.109375 305.832031 L 311.109375 69.167969 Z M 74.445312 69.167969 " fill-rule="nonzero"/></g></g><g clip-path="url(#47073ea008)"><path fill="#e9eaec" d="M 208.527344 155.585938 C 202.621094 156.671875 201.738281 157.550781 200.652344 163.457031 C 199.566406 157.550781 198.683594 156.671875 192.777344 155.585938 C 198.683594 154.496094 199.566406 153.617188 200.652344 147.710938 C 201.738281 153.617188 202.621094 154.496094 208.527344 155.585938 Z M 208.527344 155.585938 " fill-opacity="1" fill-rule="nonzero"/></g><g fill="#e9eaec" fill-opacity="1"><g transform="translate(149.059573, 258.279912)"><g><path d="M -10.21875 -1.78125 C -9.914062 -2.125 -9.628906 -2.4375 -9.359375 -2.71875 C -9.097656 -3 -8.820312 -3.210938 -8.53125 -3.359375 C -8.25 -3.503906 -7.957031 -3.570312 -7.65625 -3.5625 C -7.351562 -3.5625 -7.019531 -3.460938 -6.65625 -3.265625 L -3.46875 -1.546875 L -8.84375 8.4375 L -10.3125 7.640625 L -10.453125 7.890625 L -6.125 10.234375 L -5.984375 9.984375 L -7.328125 9.25 L -1.953125 -0.734375 L -0.609375 0 L -0.46875 -0.25 L -8.5 -4.578125 C -8.800781 -4.742188 -9.039062 -4.660156 -9.21875 -4.328125 L -10.484375 -2 C -10.617188 -1.738281 -10.644531 -1.585938 -10.5625 -1.546875 C -10.488281 -1.503906 -10.375 -1.582031 -10.21875 -1.78125 Z M -10.21875 -1.78125 "/></g></g></g><g fill="#e9eaec" fill-opacity="1"><g transform="translate(129.488237, 245.586587)"><g><path d="M -0.46875 -0.078125 L -0.265625 -0.28125 L -3.015625 -3.109375 L -3.21875 -2.90625 L -1.75 -1.40625 L -4.984375 0.171875 L -7.453125 -2.390625 L -5.8125 -5.59375 L -4.53125 -4.28125 L -4.328125 -4.484375 L -7.9375 -8.21875 L -8.140625 -8.015625 L -7.078125 -6.90625 L -12.84375 4.078125 L -12.703125 4.21875 L -1.53125 -1.171875 Z M -10.0625 2.59375 L -7.609375 -2.140625 L -5.265625 0.28125 Z M -10.0625 2.59375 "/></g></g></g><g fill="#e9eaec" fill-opacity="1"><g transform="translate(114.015463, 226.743804)"><g><path d="M -13.03125 0.390625 L -10.953125 4.6875 L -10.703125 4.5625 L -11.375 3.1875 L -1.171875 -1.765625 L -0.5 -0.390625 L -0.25 -0.515625 L -2.328125 -4.8125 L -2.578125 -4.6875 L -1.921875 -3.3125 L -7.234375 -0.734375 L -9.28125 -4.953125 L -3.96875 -7.53125 L -3.3125 -6.171875 L -3.0625 -6.296875 L -5.140625 -10.578125 L -5.390625 -10.453125 L -4.71875 -9.078125 L -14.921875 -4.125 L -15.59375 -5.5 L -15.84375 -5.375 L -13.765625 -1.09375 L -13.515625 -1.21875 L -14.171875 -2.578125 L -9.546875 -4.828125 L -7.5 -0.609375 L -12.125 1.640625 L -12.78125 0.265625 Z M -13.03125 0.390625 "/></g></g></g><g fill="#e9eaec" fill-opacity="1"><g transform="translate(105.18032, 203.44589)"><g><path d="M -12.375 -3.5 L -12.65625 -3.453125 L -11.859375 1.25 L -11.578125 1.203125 L -11.828125 -0.296875 L -0.65625 -2.203125 L -0.40625 -0.703125 L -0.125 -0.75 L -0.921875 -5.453125 L -1.203125 -5.40625 L -0.953125 -3.890625 L -12.125 -1.984375 Z M -12.375 -3.5 "/></g></g></g><g fill="#e9eaec" fill-opacity="1"><g transform="translate(103.410811, 184.364663)"><g><path d="M 0.25 -9.375 C 0.132812 -9.351562 -0.0234375 -9.34375 -0.234375 -9.34375 C -0.441406 -9.351562 -0.671875 -9.367188 -0.921875 -9.390625 C -1.179688 -9.410156 -1.4375 -9.429688 -1.6875 -9.453125 C -1.945312 -9.484375 -2.195312 -9.492188 -2.4375 -9.484375 C -2.90625 -9.460938 -3.300781 -9.382812 -3.625 -9.25 C -3.945312 -9.125 -4.21875 -8.953125 -4.4375 -8.734375 C -4.664062 -8.523438 -4.851562 -8.269531 -5 -7.96875 C -5.144531 -7.675781 -5.28125 -7.363281 -5.40625 -7.03125 C -5.476562 -7.96875 -5.726562 -8.707031 -6.15625 -9.25 C -6.582031 -9.789062 -7.171875 -10.101562 -7.921875 -10.1875 C -8.367188 -10.226562 -8.785156 -10.175781 -9.171875 -10.03125 C -9.554688 -9.882812 -9.890625 -9.65625 -10.171875 -9.34375 C -10.460938 -9.039062 -10.695312 -8.671875 -10.875 -8.234375 C -11.050781 -7.804688 -11.164062 -7.335938 -11.21875 -6.828125 L -11.765625 -1.859375 L -11.5 -1.828125 L -11.328125 -3.34375 L -0.046875 -2.109375 L -0.21875 -0.59375 L 0.0625 -0.5625 L 0.578125 -5.296875 L 0.296875 -5.328125 L 0.140625 -3.828125 L -5.625 -4.453125 L -5.46875 -5.90625 C -5.445312 -6.09375 -5.390625 -6.289062 -5.296875 -6.5 C -5.210938 -6.707031 -5.066406 -6.890625 -4.859375 -7.046875 C -4.660156 -7.203125 -4.390625 -7.328125 -4.046875 -7.421875 C -3.710938 -7.523438 -3.289062 -7.582031 -2.78125 -7.59375 C -2.476562 -7.59375 -2.164062 -7.578125 -1.84375 -7.546875 C -1.519531 -7.515625 -1.210938 -7.5 -0.921875 -7.5 C -0.628906 -7.5 -0.351562 -7.523438 -0.09375 -7.578125 C 0.15625 -7.628906 0.378906 -7.726562 0.578125 -7.875 C 0.765625 -8 0.894531 -8.160156 0.96875 -8.359375 C 1.050781 -8.566406 1.101562 -8.789062 1.125 -9.03125 C 1.15625 -9.21875 1.160156 -9.414062 1.140625 -9.625 C 1.117188 -9.832031 1.085938 -10.019531 1.046875 -10.1875 C 1.003906 -10.363281 0.957031 -10.519531 0.90625 -10.65625 C 0.851562 -10.789062 0.804688 -10.890625 0.765625 -10.953125 C 0.722656 -10.984375 0.6875 -11.003906 0.65625 -11.015625 C 0.613281 -11.015625 0.59375 -11 0.59375 -10.96875 C 0.582031 -10.945312 0.59375 -10.910156 0.625 -10.859375 C 0.757812 -10.597656 0.8125 -10.320312 0.78125 -10.03125 C 0.738281 -9.664062 0.5625 -9.445312 0.25 -9.375 Z M -5.90625 -4.484375 L -11.140625 -5.0625 L -10.953125 -6.796875 C -10.804688 -8.128906 -9.957031 -8.710938 -8.40625 -8.546875 L -7.796875 -8.484375 C -6.265625 -8.304688 -5.570312 -7.550781 -5.71875 -6.21875 Z M -5.90625 -4.484375 "/></g></g></g><g fill="#e9eaec" fill-opacity="1"><g transform="translate(107.935737, 160.965283)"><g><path d="M -8.796875 -9.546875 L -10.734375 -5.1875 L -10.46875 -5.0625 L -9.859375 -6.453125 L -1.9375 -2.953125 C -1.363281 -2.691406 -0.835938 -2.585938 -0.359375 -2.640625 C 0.117188 -2.691406 0.554688 -2.84375 0.953125 -3.09375 C 1.347656 -3.34375 1.691406 -3.65625 1.984375 -4.03125 C 2.273438 -4.414062 2.515625 -4.828125 2.703125 -5.265625 C 3.160156 -6.273438 3.265625 -7.179688 3.015625 -7.984375 C 2.765625 -8.785156 2.140625 -9.410156 1.140625 -9.859375 L -6.78125 -13.359375 L -6.171875 -14.75 L -6.4375 -14.875 L -7.78125 -11.828125 L -7.515625 -11.703125 L -6.90625 -13.09375 L 1.015625 -9.59375 C 1.441406 -9.394531 1.796875 -9.15625 2.078125 -8.875 C 2.359375 -8.59375 2.5625 -8.28125 2.6875 -7.9375 C 2.8125 -7.59375 2.863281 -7.234375 2.84375 -6.859375 C 2.820312 -6.492188 2.734375 -6.128906 2.578125 -5.765625 C 2.234375 -5.003906 1.726562 -4.507812 1.0625 -4.28125 C 0.394531 -4.050781 -0.367188 -4.128906 -1.234375 -4.515625 L -9.15625 -8.015625 L -8.53125 -9.421875 Z M -8.796875 -9.546875 "/></g></g></g><g fill="#e9eaec" fill-opacity="1"><g transform="translate(119.69369, 139.841615)"><g><path d="M 1.125 -2.8125 C 0.914062 -2.976562 0.679688 -3.046875 0.421875 -3.015625 C 0.160156 -2.992188 -0.0507812 -2.875 -0.21875 -2.65625 C -0.382812 -2.445312 -0.453125 -2.210938 -0.421875 -1.953125 C -0.398438 -1.691406 -0.285156 -1.476562 -0.078125 -1.3125 C 0.128906 -1.144531 0.363281 -1.070312 0.625 -1.09375 C 0.894531 -1.125 1.113281 -1.242188 1.28125 -1.453125 C 1.445312 -1.671875 1.515625 -1.910156 1.484375 -2.171875 C 1.453125 -2.429688 1.332031 -2.644531 1.125 -2.8125 Z M 1.125 -2.8125 "/></g></g></g><g fill="#e9eaec" fill-opacity="1"><g transform="translate(131.429649, 127.626783)"><g><path d="M 1.71875 -2.5 C 1.539062 -2.707031 1.320312 -2.820312 1.0625 -2.84375 C 0.8125 -2.875 0.582031 -2.804688 0.375 -2.640625 C 0.164062 -2.472656 0.0390625 -2.257812 0 -2 C -0.03125 -1.75 0.0390625 -1.519531 0.21875 -1.3125 C 0.382812 -1.09375 0.597656 -0.96875 0.859375 -0.9375 C 1.117188 -0.90625 1.351562 -0.972656 1.5625 -1.140625 C 1.769531 -1.304688 1.890625 -1.519531 1.921875 -1.78125 C 1.953125 -2.039062 1.882812 -2.28125 1.71875 -2.5 Z M 1.71875 -2.5 "/></g></g></g><g fill="#e9eaec" fill-opacity="1"><g transform="translate(145.531187, 118.241602)"><g><path d="M 2.203125 -2.0625 C 2.085938 -2.3125 1.90625 -2.476562 1.65625 -2.5625 C 1.414062 -2.644531 1.171875 -2.625 0.921875 -2.5 C 0.679688 -2.382812 0.519531 -2.203125 0.4375 -1.953125 C 0.351562 -1.710938 0.367188 -1.46875 0.484375 -1.21875 C 0.597656 -0.976562 0.78125 -0.816406 1.03125 -0.734375 C 1.28125 -0.648438 1.523438 -0.664062 1.765625 -0.78125 C 2.015625 -0.90625 2.175781 -1.085938 2.25 -1.328125 C 2.332031 -1.578125 2.316406 -1.820312 2.203125 -2.0625 Z M 2.203125 -2.0625 "/></g></g></g><g fill="#e9eaec" fill-opacity="1"><g transform="translate(144.661598, 227.847687)"><g><path d="M 80.78125 -26.921875 C 80 -23.234375 79.171875 -19.882812 78.296875 -16.875 C 77.429688 -13.875 76.269531 -11.28125 74.8125 -9.09375 C 73.351562 -6.914062 71.507812 -5.242188 69.28125 -4.078125 C 67.050781 -2.910156 64.238281 -2.328125 60.84375 -2.328125 L 31 -2.328125 L 31 -95.484375 L 44.828125 -95.484375 L 44.828125 -97.8125 L 4.359375 -97.8125 L 4.359375 -95.484375 L 16.890625 -95.484375 L 16.890625 -2.328125 L 4.359375 -2.328125 L 4.359375 0 L 79.328125 0 C 82.140625 0 83.546875 -1.550781 83.546875 -4.65625 L 83.546875 -26.484375 C 83.546875 -28.816406 83.15625 -29.984375 82.375 -29.984375 C 81.695312 -29.984375 81.164062 -28.960938 80.78125 -26.921875 Z M 80.78125 -26.921875 "/></g></g></g><g clip-path="url(#95521fefad)"><path fill="#e9eaec" d="M 197.785156 267.96875 C 197.785156 267.210938 198.398438 266.597656 199.160156 266.597656 C 246.085938 266.597656 284.125 228.703125 284.125 181.960938 C 284.125 135.21875 246.085938 97.328125 199.160156 97.328125 C 198.398438 97.328125 197.785156 96.714844 197.785156 95.957031 C 197.785156 95.199219 198.398438 94.585938 199.160156 94.585938 C 247.605469 94.585938 286.875 133.707031 286.875 181.960938 C 286.875 230.21875 247.605469 269.335938 199.160156 269.335938 C 198.398438 269.335938 197.785156 268.722656 197.785156 267.96875 Z M 197.785156 267.96875 " fill-opacity="1" fill-rule="evenodd"/></g></svg>